<svg width="108" height="27" viewBox="0 0 108 27" fill="none" xmlns="http://www.w3.org/2000/svg">
<path d="M102.499 1.18872H105.162C105.859 1.18872 106.456 1.43762 106.929 1.93543C107.427 2.43324 107.676 3.0306 107.676 3.70264V5.24584H102.499V1.18872Z" fill="#00C0A5"/>
<path d="M35.6677 1.18872H33.0044V26.6266H38.1816V3.62797C38.1816 2.93104 37.9327 2.35857 37.4349 1.88565C36.9371 1.41273 36.3397 1.18872 35.6677 1.18872Z" fill="white"/>
<path d="M49.3824 6.51526C46.5698 6.51526 44.3795 7.4362 42.7865 9.25319C41.2682 11.0204 40.4966 13.4845 40.4966 16.6456C40.4966 19.956 41.2931 22.4948 42.8612 24.2621C44.4293 26.0791 46.6445 27 49.4571 27C51.7719 27 53.6885 26.4275 55.2317 25.3075C56.75 24.2123 57.7954 22.6442 58.3429 20.5783H54.6343C54.0369 20.5783 53.5889 20.7027 53.2653 20.9516C52.9417 21.2005 52.7675 21.3997 52.7177 21.549C52.5684 21.6984 52.4439 21.8228 52.3195 21.9473C52.195 22.0717 52.0706 22.1464 51.9212 22.1962C51.3239 22.5446 50.6021 22.7189 49.7807 22.7189C48.4864 22.7189 47.5405 22.3206 46.8934 21.5241C46.1965 20.7774 45.8231 19.6573 45.7733 18.1141H58.567C58.6167 18.0146 58.6416 17.8404 58.6416 17.5915C58.6416 17.5417 58.6416 17.4421 58.6416 17.2928C58.6416 17.1434 58.6416 16.9692 58.6416 16.7701C58.6416 13.5094 57.8451 10.9706 56.277 9.15363C54.6343 7.41131 52.3444 6.51526 49.3824 6.51526ZM45.7733 14.8037C45.8231 13.5094 46.1965 12.5387 46.8934 11.8418C47.5903 11.1449 48.4615 10.7964 49.5567 10.7964C50.7514 10.7964 51.6474 11.1449 52.2946 11.8418C52.892 12.4889 53.2404 13.4597 53.34 14.8037H45.7733Z" fill="white"/>
<path d="M75.766 8.2078C73.949 7.06285 71.9329 6.51526 69.7674 6.51526C67.6517 6.61482 65.7103 7.23708 63.968 8.35714C62.2256 9.5021 61.3296 11.7422 61.3296 15.0775V26.6266H66.5068V14.057C66.5068 12.8623 66.8552 12.016 67.5522 11.4684C68.2491 10.9208 69.0207 10.6471 69.9167 10.6471C70.8128 10.6471 71.6093 10.9208 72.3311 11.4684C73.0529 12.016 73.4014 12.8623 73.4014 14.057V24.1127C73.4014 24.8594 73.6254 25.4568 74.0983 25.9297C74.5712 26.4026 75.1686 26.6266 75.9153 26.6266H78.5039V15.1024C78.5039 11.6427 77.583 9.35276 75.766 8.2078Z" fill="white"/>
<path d="M96.7486 1.11407H94.2347V9.55189C93.6373 8.60606 92.8657 7.85935 91.8701 7.26198C90.9243 6.76418 89.854 6.51527 88.6095 6.51527C86.2947 6.51527 84.403 7.48599 82.9096 9.40255C81.4909 11.2693 80.769 13.7584 80.769 16.8696C80.769 20.0307 81.4909 22.5197 82.9096 24.3367C83.6563 25.2826 84.627 25.9546 85.8716 26.3777C87.1161 26.8009 88.3606 27 89.6549 27C92.0195 27 94.2098 26.3777 96.2508 25.1581C98.2669 23.9136 99.2874 21.549 99.2874 18.0644V3.628C99.2874 2.98085 99.0385 2.40837 98.5407 1.88567C98.018 1.36298 97.4456 1.11407 96.7486 1.11407ZM93.1893 21.1508C92.4426 22.1962 91.4221 22.694 90.078 22.694C88.7091 22.694 87.6388 22.1713 86.8921 21.1508C86.1454 20.1054 85.772 18.612 85.772 16.6456C85.772 14.8784 86.1454 13.4846 86.8921 12.5138C87.6388 11.4684 88.6344 10.9706 89.9287 10.9706C91.2479 10.9706 92.3182 11.4684 93.1146 12.4392C93.8614 13.4846 94.2347 14.8784 94.2347 16.6456C94.2347 18.612 93.8862 20.1303 93.1893 21.1508Z" fill="white"/>
<path d="M106.929 7.71003C106.431 7.21222 105.834 6.96332 105.162 6.96332H102.499V26.6267H107.676V9.45235C107.676 8.78031 107.427 8.18294 106.929 7.71003Z" fill="white"/>
<path d="M26.4584 7.90912L15.2578 0.417135C14.4613 -0.130452 13.4408 -0.130452 12.6443 0.367354L1.07028 7.88423C0.398245 8.33226 0 9.07897 0 9.87546V24.6354C0 25.9546 1.07028 27 2.36458 27H25.1392C26.4584 27 27.5038 25.9297 27.5038 24.6354V9.87546C27.5038 9.07897 27.1056 8.33226 26.4584 7.90912ZM22.7746 22.2708H16.1289V15.3762H11.3998V22.2708H4.72916V11.1449L13.9137 5.19608L22.7746 11.12V22.2708Z" fill="#00C0A5"/>
</svg>
